<?xml version="1.0" encoding="UTF-8"?>
<svg version="1.1" xmlns="http://www.w3.org/2000/svg" width="315" height="294">
<path d="M0 0 C1.02072098 -0.00426498 2.04144196 -0.00852997 3.09309387 -0.01292419 C4.76396812 -0.01224442 4.76396812 -0.01224442 6.46859741 -0.0115509 C8.23492775 -0.01658882 8.23492775 -0.01658882 10.03694153 -0.02172852 C13.26195277 -0.02959763 16.48692536 -0.0329058 19.71194506 -0.0335443 C22.4035706 -0.03449452 25.09518997 -0.03817381 27.78681314 -0.0417164 C34.13370666 -0.0498531 40.480586 -0.05230121 46.82748413 -0.05158997 C53.38043959 -0.0509882 59.93331299 -0.06156148 66.48624766 -0.07733363 C72.1109454 -0.09039045 77.73561624 -0.0957747 83.36032903 -0.09513456 C86.72055091 -0.09487918 90.08069972 -0.09775271 93.44090652 -0.10831261 C97.18328023 -0.11805349 100.92543938 -0.11525829 104.66781616 -0.10920715 C105.78578079 -0.11482666 106.90374542 -0.12044617 108.05558777 -0.12623596 C109.57820976 -0.11994423 109.57820976 -0.11994423 111.1315918 -0.11352539 C112.01684855 -0.11407016 112.90210529 -0.11461493 113.814188 -0.1151762 C115.93881226 0.13371277 115.93881226 0.13371277 117.93881226 2.13371277 C118.56400757 2.28968933 119.18920288 2.44566589 119.83334351 2.60636902 C122.21502938 3.20289517 123.65206427 4.12799895 125.62631226 5.57121277 C126.22830444 6.00304871 126.83029663 6.43488464 127.45053101 6.87980652 C128.93881226 8.13371277 128.93881226 8.13371277 129.93881226 10.13371277 C131.90097441 11.15403309 131.90097441 11.15403309 133.87631226 11.88371277 C135.93881226 13.13371277 135.93881226 13.13371277 137.18881226 15.25871277 C139.38077068 18.85978732 142.18974531 21.34402122 145.29428101 24.16886902 C146.93881226 26.13371277 146.93881226 26.13371277 146.93881226 30.13371277 C112.94881226 30.13371277 78.95881226 30.13371277 43.93881226 30.13371277 C42.94881226 27.65871277 42.94881226 27.65871277 41.93881226 25.13371277 C40.03869456 23.89196481 40.03869456 23.89196481 37.93881226 23.13371277 C36.94881226 22.47371277 35.95881226 21.81371277 34.93881226 21.13371277 C34.93881226 20.80371277 34.93881226 20.47371277 34.93881226 20.13371277 C32.29881226 20.13371277 29.65881226 20.13371277 26.93881226 20.13371277 C26.93881226 20.79371277 26.93881226 21.45371277 26.93881226 22.13371277 C25.96943726 22.40183777 25.00006226 22.66996277 24.00131226 22.94621277 C22.99068726 23.33808777 21.98006226 23.72996277 20.93881226 24.13371277 C20.44381226 25.61871277 20.44381226 25.61871277 19.93881226 27.13371277 C19.27881226 27.13371277 18.61881226 27.13371277 17.93881226 27.13371277 C17.02188264 29.88450161 16.82995142 31.4932019 16.87631226 34.32121277 C16.89693726 35.57933777 16.91756226 36.83746277 16.93881226 38.13371277 C17.59881226 38.13371277 18.25881226 38.13371277 18.93881226 38.13371277 C19.02131226 38.73183777 19.10381226 39.32996277 19.18881226 39.94621277 C20.40093205 43.48156216 22.99747036 44.63689344 26.18881226 46.32121277 C26.76631226 46.58933777 27.34381226 46.85746277 27.93881226 47.13371277 C27.93881226 47.46371277 27.93881226 47.79371277 27.93881226 48.13371277 C29.91881226 48.13371277 31.89881226 48.13371277 33.93881226 48.13371277 C33.93881226 47.47371277 33.93881226 46.81371277 33.93881226 46.13371277 C35.05256226 45.84496277 36.16631226 45.55621277 37.31381226 45.25871277 C40.94172317 44.44129948 40.94172317 44.44129948 42.93881226 42.13371277 C43.26881226 40.81371277 43.59881226 39.49371277 43.93881226 38.13371277 C81.88881226 38.13371277 119.83881226 38.13371277 158.93881226 38.13371277 C159.92881226 40.60871277 159.92881226 40.60871277 160.93881226 43.13371277 C162.20397548 45.42579419 163.48948977 47.68932486 164.81381226 49.94621277 C173.09135254 64.31144802 173.09135254 64.31144802 172.52865601 67.34465027 C172.23668335 68.23023621 172.23668335 68.23023621 171.93881226 69.13371277 C171.16428585 69.13794471 170.38975945 69.14217665 169.59176254 69.14653683 C150.75520555 69.249793 131.91868659 69.35842323 113.08219528 69.47305202 C103.9730533 69.52835547 94.86390741 69.58183276 85.75473022 69.63102722 C77.81617678 69.6739043 69.87765184 69.72019121 61.93914247 69.77059132 C57.73487641 69.79716384 53.53061589 69.82201622 49.32631683 69.84278679 C45.37013069 69.86238544 41.41399866 69.88653888 37.45786095 69.91420364 C36.00502443 69.92355698 34.55217604 69.93123841 33.09932137 69.93713188 C31.11698176 69.94542216 29.13467288 69.96028763 27.15237427 69.97549438 C25.48761614 69.98517321 25.48761614 69.98517321 23.78922653 69.99504757 C21.33249195 70.11456128 19.28118638 70.42138537 16.93881226 71.13371277 C17.43381226 74.59871277 17.43381226 74.59871277 17.93881226 78.13371277 C21.26217554 79.24150053 23.75790479 79.27236692 27.25990295 79.29193115 C28.22542445 79.29933812 28.22542445 79.29933812 29.21045142 79.30689472 C31.37079761 79.32227261 33.53111406 79.3306311 35.6914978 79.33903503 C37.23872133 79.34861333 38.78594224 79.35862339 40.3331604 79.36903381 C44.53737738 79.39609418 48.7416056 79.41709762 52.94586158 79.4370358 C57.33813006 79.45888836 61.73036386 79.48628062 66.12260437 79.51309204 C74.44169621 79.5630288 82.7608073 79.60796399 91.0799368 79.6511144 C100.55022392 79.70047838 110.02047623 79.75539962 119.49072969 79.810794 C138.97339157 79.92462914 158.45608629 80.03146485 177.93881226 80.13371277 C178.5947933 82.64524793 179.2433897 85.15832723 179.88803101 87.67277527 C180.07200439 88.37410583 180.25597778 89.0754364 180.44552612 89.79801941 C184.55037332 105.91059064 184.55037332 105.91059064 181.93881226 111.13371277 C180.62163208 111.15876892 179.3044519 111.18382507 177.94735718 111.2096405 C173.06639664 111.30372159 168.18557818 111.40394068 163.30477905 111.50602722 C161.19120606 111.54937341 159.07759812 111.59104871 156.96395874 111.63102722 C153.92812562 111.68873726 150.89246837 111.75242978 147.85678101 111.81730652 C146.90981857 111.83401901 145.96285614 111.85073151 144.98719788 111.86795044 C144.10651138 111.88789566 143.22582489 111.90784088 142.31845093 111.9283905 C141.54345749 111.94393478 140.76846405 111.95947906 139.96998596 111.97549438 C137.73548732 112.06726654 137.73548732 112.06726654 134.93881226 113.13371277 C134.60881226 146.79371277 134.27881226 180.45371277 133.93881226 215.13371277 C107.86881226 215.13371277 81.79881226 215.13371277 54.93881226 215.13371277 C54.56381226 183.75871277 54.56381226 183.75871277 54.46078491 173.84709167 C54.42559518 171.26814211 54.38967576 168.68920235 54.35287476 166.11027527 C54.34458145 165.10170975 54.34458145 165.10170975 54.33612061 164.07276917 C54.31911511 162.09640178 54.28866055 160.12016408 54.25765991 158.14396667 C54.24433624 157.02921967 54.23101257 155.91447266 54.21728516 154.76594543 C54.20116027 151.97686709 54.20116027 151.97686709 51.93881226 150.13371277 C49.72862415 149.86220027 49.72862415 149.86220027 47.15365601 149.95426941 C46.15922485 149.96410355 45.1647937 149.97393768 44.14022827 149.98406982 C43.06313599 150.00380356 41.9860437 150.02353729 40.87631226 150.04386902 C38.61329354 150.06428722 36.35027262 150.08446206 34.08724976 150.10441589 C30.50544946 150.1479943 26.92379513 150.19643805 23.34213257 150.25016785 C19.89519718 150.29826572 16.44845984 150.32825906 13.00131226 150.35636902 C11.38567383 150.38900597 11.38567383 150.38900597 9.73739624 150.42230225 C8.74296509 150.42898422 7.74853394 150.4356662 6.72396851 150.44255066 C5.40731201 150.46159203 5.40731201 150.46159203 4.0640564 150.48101807 C3.36272583 150.36640732 2.66139526 150.25179657 1.93881226 150.13371277 C-0.06118774 147.13371277 -0.06118774 147.13371277 -0.87368774 145.00871277 C-1.94897079 142.8509341 -1.94897079 142.8509341 -4.68618774 142.38371277 C-5.46993774 142.30121277 -6.25368774 142.21871277 -7.06118774 142.13371277 C-7.06118774 141.14371277 -7.06118774 140.15371277 -7.06118774 139.13371277 C-10.03118774 139.46371277 -13.00118774 139.79371277 -16.06118774 140.13371277 C-16.06118774 140.79371277 -16.06118774 141.45371277 -16.06118774 142.13371277 C-16.67993774 142.25746277 -17.29868774 142.38121277 -17.93618774 142.50871277 C-20.25239606 143.00568633 -20.25239606 143.00568633 -22.06118774 145.13371277 C-22.83462524 145.72152527 -22.83462524 145.72152527 -23.62368774 146.32121277 C-25.89729203 149.18793121 -25.94248065 151.51314632 -26.06118774 155.13371277 C-25.63039813 158.22292774 -24.94520112 160.62169494 -23.06118774 163.13371277 C-20.16000167 164.67416555 -17.27182176 165.48754743 -14.06118774 166.13371277 C-14.06118774 166.79371277 -14.06118774 167.45371277 -14.06118774 168.13371277 C-11.88858878 167.66815585 -10.05517199 167.13070489 -8.06118774 166.13371277 C-6.06118774 165.13371277 -6.06118774 165.13371277 -3.93618774 164.63371277 C-1.83439292 164.24094212 -1.83439292 164.24094212 -0.06118774 162.13371277 C0.26881226 160.81371277 0.59881226 159.49371277 0.93881226 158.13371277 C14.46881226 158.13371277 27.99881226 158.13371277 41.93881226 158.13371277 C41.99488647 165.11978699 41.99488647 165.11978699 42.05209351 172.24699402 C42.08236572 175.19559892 42.11350845 178.1441429 42.14779663 181.09269714 C42.20215024 185.77389998 42.25325857 190.45498228 42.2852478 195.13639832 C42.31123686 198.91023364 42.35160716 202.68366496 42.40199852 206.4572506 C42.4186972 207.89771186 42.43019279 209.33824305 42.43642616 210.77878761 C42.44603374 212.79475051 42.47577328 214.81058718 42.50643921 216.82633972 C42.51754227 217.9743959 42.52864532 219.12245209 42.54008484 220.30529785 C42.98285556 223.44613858 43.52889865 224.20200281 45.93881226 226.13371277 C46.26881226 226.79371277 46.59881226 227.45371277 46.93881226 228.13371277 C69.37881226 227.80371277 91.81881226 227.47371277 114.93881226 227.13371277 C114.60881226 228.78371277 114.27881226 230.43371277 113.93881226 232.13371277 C113.34068726 232.25746277 112.74256226 232.38121277 112.12631226 232.50871277 C109.67649877 233.08847262 109.67649877 233.08847262 106.93881226 235.13371277 C104.61493279 235.52759064 102.28087476 235.86857362 99.93881226 236.13371277 C99.93881226 236.79371277 99.93881226 237.45371277 99.93881226 238.13371277 C98.79412476 238.25746277 97.64943726 238.38121277 96.47006226 238.50871277 C92.03341976 239.06329308 87.77051869 240.04486853 83.43881226 241.13371277 C59.63477778 247.11724056 32.9761027 245.78731425 9.93881226 237.13371277 C7.78424257 234.97914308 8.678546 230.06255007 8.62240601 227.06730652 C8.60162491 226.15868362 8.58084381 225.25006073 8.55943298 224.31390381 C8.49383554 221.39975331 8.43500545 218.48550973 8.37631226 215.57121277 C8.33313671 213.60049986 8.28952275 211.62979651 8.24545288 209.65910339 C8.13814382 204.81740289 8.03690551 199.9756084 7.93881226 195.13371277 C6.94881226 195.13371277 5.95881226 195.13371277 4.93881226 195.13371277 C4.60881226 194.47371277 4.27881226 193.81371277 3.93881226 193.13371277 C-20.31618774 192.63871277 -20.31618774 192.63871277 -45.06118774 192.13371277 C-45.26456371 171.44498851 -45.43026074 150.75707693 -45.52749729 130.06760597 C-45.57385144 120.46053334 -45.6370167 110.85412711 -45.74014282 101.2474823 C-45.83001372 92.87160706 -45.88795057 84.49621455 -45.9079842 76.11987054 C-45.91969044 71.68675923 -45.94708297 67.25502854 -46.01275826 62.82236099 C-46.07415913 58.64407031 -46.09263162 54.46771955 -46.07915688 50.28902054 C-46.08161929 48.76118397 -46.09934273 47.23327802 -46.13403702 45.70583344 C-46.30068343 37.98602622 -46.04536588 32.36004099 -40.63404846 26.3674469 C-39.11230861 24.95345608 -37.58835819 23.54183657 -36.06118774 22.13371277 C-34.80175664 20.30846732 -34.80175664 20.30846732 -33.87368774 18.57121277 C-32.06118774 16.13371277 -32.06118774 16.13371277 -26.06118774 15.13371277 C-26.06118774 48.46371277 -26.06118774 81.79371277 -26.06118774 116.13371277 C-25.40118774 116.13371277 -24.74118774 116.13371277 -24.06118774 116.13371277 C-23.56618774 117.12371277 -23.56618774 117.12371277 -23.06118774 118.13371277 C13.56881226 118.46371277 50.19881226 118.79371277 87.93881226 119.13371277 C87.93881226 132.33371277 87.93881226 145.53371277 87.93881226 159.13371277 C86.28881226 160.12371277 84.63881226 161.11371277 82.93881226 162.13371277 C82.24132642 163.45118601 81.56921269 164.7828547 80.93881226 166.13371277 C79.94881226 166.46371277 78.95881226 166.79371277 77.93881226 167.13371277 C75.10423987 172.50699309 75.18243081 178.22018509 75.93881226 184.13371277 C77.14039152 187.22622355 78.53531696 189.82509229 80.93881226 192.13371277 C83.02822551 192.87602621 83.02822551 192.87602621 84.93881226 193.13371277 C84.93881226 193.79371277 84.93881226 194.45371277 84.93881226 195.13371277 C89.71068929 196.75615096 93.03226654 197.4718616 97.93881226 196.13371277 C98.92881226 195.47371277 99.91881226 194.81371277 100.93881226 194.13371277 C101.90818726 193.84496277 102.87756226 193.55621277 103.87631226 193.25871277 C107.80898817 191.81405631 109.84266491 189.90955005 112.02865601 186.36808777 C114.28496001 180.8290067 113.59515262 174.03709984 111.68881226 168.50871277 C109.8660516 166.03496617 108.69233498 165.32690595 105.93881226 164.13371277 C105.60881226 163.14371277 105.27881226 162.15371277 104.93881226 161.13371277 C102.93864759 159.9248918 102.93864759 159.9248918 100.93881226 159.13371277 C100.9307254 158.57883179 100.92263855 158.02395081 100.91430664 157.45225525 C100.8282497 151.6770587 100.72874558 145.90220493 100.62142944 140.12736511 C100.58314623 137.97215024 100.54829221 135.8168716 100.51693726 133.6615448 C100.47127276 130.56349401 100.41328014 127.46588186 100.35287476 124.36808777 C100.34132355 123.40441284 100.32977234 122.44073792 100.31787109 121.44786072 C100.28806656 120.09691315 100.28806656 120.09691315 100.25765991 118.71867371 C100.23767441 117.53286713 100.23767441 117.53286713 100.21728516 116.32310486 C100.00926906 113.72331842 100.00926906 113.72331842 97.93881226 110.13371277 C60.97881226 109.80371277 24.01881226 109.47371277 -14.06118774 109.13371277 C-14.06118774 74.15371277 -14.06118774 39.17371277 -14.06118774 3.13371277 C-8.93920074 1.08491797 -5.44462162 0.01029822 0 0 Z " fill="#EFEFEF" transform="translate(100.06118774414063,24.866287231445313)"/>
<path d="M0 0 C11.88 0 23.76 0 36 0 C34.46980843 20.04550952 30.53379435 45.99467829 17.25 62.125 C13.89745827 66.40880333 10.72840374 70.81478879 9 76 C8.360625 76.309375 7.72125 76.61875 7.0625 76.9375 C4.54531085 78.2342338 4.03113052 79.4221737 3 82 C2.01 82 1.02 82 0 82 C0 54.94 0 27.88 0 0 Z " fill="#F1F1F1" transform="translate(247,146)"/>
<path d="M0 0 C0.66 0.33 1.32 0.66 2 1 C2 43.24 2 85.48 2 129 C1.34 129.33 0.68 129.66 0 130 C-0.32871094 129.16082031 -0.32871094 129.16082031 -0.6640625 128.3046875 C-0.98117188 127.50289063 -1.29828125 126.70109375 -1.625 125.875 C-1.98980469 124.95074219 -2.35460938 124.02648437 -2.73046875 123.07421875 C-3.58096869 121.01470044 -4.48038088 118.97474876 -5.42578125 116.95703125 C-19.28493718 86.98257774 -19.68617363 51.8359092 -8.71777344 20.92138672 C-6.69922896 15.51800406 -4.34762513 10.26666635 -2 5 C-1.32444273 3.33691714 -0.6543507 1.67154042 0 0 Z " fill="#E6E6E6" transform="translate(41,75)"/>
<path d="M0 0 C11.22 0 22.44 0 34 0 C34 8.25 34 16.5 34 25 C22.71905584 22.74381117 22.71905584 22.74381117 18.4375 19.5 C17.61121094 18.8915625 16.78492187 18.283125 15.93359375 17.65625 C14 16 14 16 13 14 C12.01 13.67 11.02 13.34 10 13 C9.690625 12.34 9.38125 11.68 9.0625 11 C8.711875 10.34 8.36125 9.68 8 9 C7.360625 8.855625 6.72125 8.71125 6.0625 8.5625 C4 8 4 8 2.3125 5.625 C1 3 1 3 0 0 Z " fill="#DCDCDC" transform="translate(63,230)"/>
<path d="M0 0 C0.33 0 0.66 0 1 0 C1 52.8 1 105.6 1 160 C0.67 160 0.34 160 0 160 C0 107.2 0 54.4 0 0 Z " fill="#000000" transform="translate(53,57)"/>
<path d="M0 0 C51.81 0 103.62 0 157 0 C157 0.33 157 0.66 157 1 C105.19 1 53.38 1 0 1 C0 0.67 0 0.34 0 0 Z " fill="#000000" transform="translate(121,103)"/>
<path d="M0 0 C0.33 0 0.66 0 1 0 C1 42.24 1 84.48 1 128 C0.67 128 0.34 128 0 128 C0 85.76 0 43.52 0 0 Z " fill="#000000" transform="translate(44,76)"/>
<path d="M0 0 C38.94 0 77.88 0 118 0 C118 0.33 118 0.66 118 1 C79.06 1 40.12 1 0 1 C0 0.67 0 0.34 0 0 Z " fill="#000000" transform="translate(95,23)"/>
<path d="M0 0 C36.96 0 73.92 0 112 0 C112 0.99 112 1.98 112 3 C111.505 2.505 111.505 2.505 111 2 C109.55830537 1.89232174 108.11142142 1.85319047 106.66575623 1.84178162 C105.73041046 1.8319928 104.7950647 1.82220398 103.83137512 1.81211853 C102.79703842 1.80636307 101.76270172 1.8006076 100.69702148 1.79467773 C99.07283295 1.77982834 99.07283295 1.77982834 97.41583252 1.76467896 C93.81760891 1.73295588 90.21937207 1.70826397 86.62109375 1.68359375 C84.13387193 1.66303355 81.64665368 1.64203734 79.15943909 1.62062073 C73.26982112 1.57096517 67.38018203 1.52572497 61.49051291 1.48259836 C54.12970579 1.42843101 46.76895781 1.36745396 39.40820312 1.30664062 C26.27217561 1.19894122 13.1361082 1.09733335 0 1 C0 0.67 0 0.34 0 0 Z " fill="#000000" transform="translate(86,135)"/>
<path d="M0 0 C0.33 0 0.66 0 1 0 C1 34.32 1 68.64 1 104 C0.67 104 0.34 104 0 104 C0 69.68 0 35.36 0 0 Z " fill="#000000" transform="translate(84,30)"/>
<path d="M0 0 C0.33 0 0.66 0 1 0 C1 33.66 1 67.32 1 102 C0.67 102 0.34 102 0 102 C0 68.34 0 34.68 0 0 Z " fill="#000000" transform="translate(235,138)"/>
<path d="M0 0 C0.33 0 0.66 0 1 0 C1 32.34 1 64.68 1 98 C0.67 98 0.34 98 0 98 C0 65.66 0 33.32 0 0 Z " fill="#000000" transform="translate(74,42)"/>
<path d="M0 0 C0.33 0 0.66 0 1 0 C1 26.73 1 53.46 1 81 C0.67 81 0.34 81 0 81 C0 54.27 0 27.54 0 0 Z " fill="#000000" transform="translate(245,146)"/>
<path d="M0 0 C26.07 0 52.14 0 79 0 C79 0.33 79 0.66 79 1 C52.93 1 26.86 1 0 1 C0 0.67 0 0.34 0 0 Z " fill="#000000" transform="translate(155,241)"/>
<path d="M0 0 C-0.33 1.65 -0.66 3.3 -1 5 C-1.99 5 -2.98 5 -4 5 C-4 4.34 -4 3.68 -4 3 C-35.68 2.505 -35.68 2.505 -68 2 C-68 1.67 -68 1.34 -68 1 C-59.42921273 0.86943831 -50.858423 0.73903899 -42.28763008 0.60884857 C-38.30812586 0.54839473 -34.32862251 0.48788437 -30.34912109 0.42724609 C-26.51067171 0.36875918 -22.67222012 0.31041909 -18.83376694 0.25218201 C-17.36730749 0.22990681 -15.90084884 0.20757818 -14.43439102 0.18519592 C-12.38481096 0.1539226 -10.33522813 0.12283709 -8.28564453 0.09179688 C-7.11760284 0.07403198 -5.94956116 0.05626709 -4.74612427 0.03796387 C-3.1641834 0.01609428 -1.58209203 0 0 0 Z " fill="#C7C7C7" transform="translate(215,252)"/>
<path d="M0 0 C21.45 0 42.9 0 65 0 C65 0.33 65 0.66 65 1 C43.55 1 22.1 1 0 1 C0 0.67 0 0.34 0 0 Z " fill="#000000" transform="translate(148,251)"/>
<path d="M0 0 C0.33 0 0.66 0 1 0 C1 20.79 1 41.58 1 63 C0.67 63 0.34 63 0 63 C0 42.21 0 21.42 0 0 Z " fill="#000000" transform="translate(143,185)"/>
<path d="M0 0 C0.33 0 0.66 0 1 0 C1 20.79 1 41.58 1 63 C0.67 63 0.34 63 0 63 C0 42.21 0 21.42 0 0 Z " fill="#000000" transform="translate(153,177)"/>
<path d="M0 0 C15.51 0 31.02 0 47 0 C47 0.33 47 0.66 47 1 C31.49 1 15.98 1 0 1 C0 0.67 0 0.34 0 0 Z " fill="#000000" transform="translate(57,218)"/>
<path d="M0 0 C0.33 0 0.66 0 1 0 C1 14.85 1 29.7 1 45 C0.67 45 0.34 45 0 45 C0 30.15 0 15.3 0 0 Z " fill="#000000" transform="translate(199,139)"/>
<path d="M0 0 C0.33 0 0.66 0 1 0 C1 13.53 1 27.06 1 41 C0.67 41 0.34 41 0 41 C0 27.47 0 13.94 0 0 Z " fill="#000000" transform="translate(107,220)"/>
<path d="M0 0 C0.33 0 0.66 0 1 0 C1 12.21 1 24.42 1 37 C0.67 37 0.34 37 0 37 C0 24.79 0 12.58 0 0 Z " fill="#000000" transform="translate(189,147)"/>
<path d="M0 0 C11.55 0 23.1 0 35 0 C35 0.33 35 0.66 35 1 C23.45 1 11.9 1 0 1 C0 0.67 0 0.34 0 0 Z " fill="#000000" transform="translate(247,144)"/>
<path d="M0 0 C11.22 0 22.44 0 34 0 C34 0.33 34 0.66 34 1 C22.78 1 11.56 1 0 1 C0 0.67 0 0.34 0 0 Z " fill="#000000" transform="translate(63,228)"/>
<path d="M0 0 C8.91 0 17.82 0 27 0 C27 0.33 27 0.66 27 1 C18.09 1 9.18 1 0 1 C0 0.67 0 0.34 0 0 Z " fill="#000000" transform="translate(141,270)"/>
<path d="M0 0 C0.33 0 0.66 0 1 0 C1 8.25 1 16.5 1 25 C0.67 25 0.34 25 0 25 C0 16.75 0 8.5 0 0 Z " fill="#000000" transform="translate(98,230)"/>
<path d="M0 0 C0.33 0 0.66 0 1 0 C1 7.92 1 15.84 1 24 C0.67 24 0.34 24 0 24 C0 16.08 0 8.16 0 0 Z " fill="#000000" transform="translate(23,128)"/>
<path d="M0 0 C0.33 0 0.66 0 1 0 C1 3.96 1 7.92 1 12 C0.67 12 0.34 12 0 12 C0 8.04 0 4.08 0 0 Z " fill="#000000" transform="translate(176,197)"/>
<path d="M0 0 C0.33 0 0.66 0 1 0 C1 3.63 1 7.26 1 11 C0.67 11 0.34 11 0 11 C0 7.37 0 3.74 0 0 Z " fill="#000000" transform="translate(212,197)"/>
<path d="M0 0 C0.33 0 0.66 0 1 0 C1 2.97 1 5.94 1 9 C0.67 9 0.34 9 0 9 C0 6.03 0 3.06 0 0 Z " fill="#000000" transform="translate(283,121)"/>
<path d="M0 0 C2.64 0 5.28 0 8 0 C8 0.33 8 0.66 8 1 C5.36 1 2.72 1 0 1 C0 0.67 0 0.34 0 0 Z " fill="#000000" transform="translate(84,165)"/>
<path d="M0 0 C0.33 0 0.66 0 1 0 C1 2.64 1 5.28 1 8 C0.67 8 0.34 8 0 8 C0 5.36 0 2.72 0 0 Z " fill="#000000" transform="translate(24,152)"/>
<path d="M0 0 C0.33 0 0.66 0 1 0 C1 2.64 1 5.28 1 8 C0.67 8 0.34 8 0 8 C0 5.36 0 2.72 0 0 Z " fill="#000000" transform="translate(283,150)"/>
<path d="M0 0 C0.33 0 0.66 0 1 0 C1 2.64 1 5.28 1 8 C0.67 8 0.34 8 0 8 C0 5.36 0 2.72 0 0 Z " fill="#000000" transform="translate(24,120)"/>
<path d="M0 0 C0.33 0 0.66 0 1 0 C1 2.31 1 4.62 1 7 C0.67 7 0.34 7 0 7 C0 4.69 0 2.38 0 0 Z " fill="#000000" transform="translate(117,55)"/>
<path d="M0 0 C1.98 0 3.96 0 6 0 C6 0.33 6 0.66 6 1 C4.02 1 2.04 1 0 1 C0 0.67 0 0.34 0 0 Z " fill="#000000" transform="translate(134,269)"/>
<path d="M0 0 C0.33 0 0.66 0 1 0 C1 1.98 1 3.96 1 6 C0.67 6 0.34 6 0 6 C0 4.02 0 2.04 0 0 Z " fill="#000000" transform="translate(25,160)"/>
<path d="M0 0 C0.33 0 0.66 0 1 0 C1 1.98 1 3.96 1 6 C0.67 6 0.34 6 0 6 C0 4.02 0 2.04 0 0 Z " fill="#000000" transform="translate(282,159)"/>
<path d="M0 0 C0.33 0 0.66 0 1 0 C1 1.98 1 3.96 1 6 C0.67 6 0.34 6 0 6 C0 4.02 0 2.04 0 0 Z " fill="#000000" transform="translate(282,115)"/>
<path d="M0 0 C0.33 0 0.66 0 1 0 C1 1.98 1 3.96 1 6 C0.67 6 0.34 6 0 6 C0 4.02 0 2.04 0 0 Z " fill="#000000" transform="translate(25,114)"/>
<path d="M0 0 C1.98 0 3.96 0 6 0 C6 0.33 6 0.66 6 1 C4.02 1 2.04 1 0 1 C0 0.67 0 0.34 0 0 Z " fill="#000000" transform="translate(128,72)"/>
<path d="M0 0 C1.98 0 3.96 0 6 0 C6 0.33 6 0.66 6 1 C4.02 1 2.04 1 0 1 C0 0.67 0 0.34 0 0 Z " fill="#000000" transform="translate(128,45)"/>
<path d="M0 0 C1.65 0 3.3 0 5 0 C5 0.33 5 0.66 5 1 C3.35 1 1.7 1 0 1 C0 0.67 0 0.34 0 0 Z " fill="#000000" transform="translate(168,269)"/>
<path d="M0 0 C1.65 0 3.3 0 5 0 C5 0.33 5 0.66 5 1 C3.35 1 1.7 1 0 1 C0 0.67 0 0.34 0 0 Z " fill="#000000" transform="translate(175,268)"/>
<path d="M0 0 C1.65 0 3.3 0 5 0 C5 0.33 5 0.66 5 1 C3.35 1 1.7 1 0 1 C0 0.67 0 0.34 0 0 Z " fill="#000000" transform="translate(128,268)"/>
<path d="M0 0 C1.98 0.99 1.98 0.99 4 2 C2.68 1.67 1.36 1.34 0 1 C0 0.67 0 0.34 0 0 Z " fill="#000000" transform="translate(93,255)"/>
<path d="M0 0 C0.33 0 0.66 0 1 0 C1 1.65 1 3.3 1 5 C0.67 5 0.34 5 0 5 C0 3.35 0 1.7 0 0 Z " fill="#000000" transform="translate(117,96)"/>
<path d="M0 0 C4 1 4 1 4 1 Z " fill="#000000" transform="translate(184,266)"/>
<path d="M0 0 C0 3 0 3 0 3 Z " fill="#000000" transform="translate(251,225)"/>
<path d="M0 0 C1 4 1 4 1 4 Z " fill="#000000" transform="translate(75,180)"/>
<path d="M0 0 C1 4 1 4 1 4 Z " fill="#000000" transform="translate(279,173)"/>
<path d="M0 0 C1 4 1 4 1 4 Z " fill="#000000" transform="translate(75,173)"/>
<path d="M0 0 C1 4 1 4 1 4 Z " fill="#000000" transform="translate(27,170)"/>
<path d="M0 0 C1 4 1 4 1 4 Z " fill="#000000" transform="translate(280,169)"/>
<path d="M0 0 C1 4 1 4 1 4 Z " fill="#000000" transform="translate(26,166)"/>
<path d="M0 0 C1 4 1 4 1 4 Z " fill="#000000" transform="translate(281,165)"/>
<path d="M0 0 C1 4 1 4 1 4 Z " fill="#000000" transform="translate(281,111)"/>
<path d="M0 0 C1 4 1 4 1 4 Z " fill="#000000" transform="translate(26,110)"/>
<path d="M0 0 C1 4 1 4 1 4 Z " fill="#000000" transform="translate(280,107)"/>
<path d="M0 0 C1 4 1 4 1 4 Z " fill="#000000" transform="translate(27,106)"/>
<path d="M0 0 C3 1 3 1 3 1 Z " fill="#000000" transform="translate(180,267)"/>
<path d="M0 0 C3 1 3 1 3 1 Z " fill="#000000" transform="translate(124,267)"/>
<path d="M0 0 C3 1 3 1 3 1 Z " fill="#000000" transform="translate(120,266)"/>
<path d="M0 0 C3 1 3 1 3 1 Z " fill="#000000" transform="translate(188,265)"/>
<path d="M0 0 C3 1 3 1 3 1 Z " fill="#000000" transform="translate(192,264)"/>
<path d="M0 0 C3 1 3 1 3 1 Z " fill="#000000" transform="translate(113,264)"/>
<path d="M0 0 C3 1 3 1 3 1 Z " fill="#000000" transform="translate(110,263)"/>
<path d="M0 0 C3 1 3 1 3 1 Z " fill="#000000" transform="translate(193,221)"/>
<path d="M0 0 C3 1 3 1 3 1 Z " fill="#000000" transform="translate(188,220)"/>
<path d="M0 0 C3 1 3 1 3 1 Z " fill="#000000" transform="translate(185,219)"/>
<path d="" fill="#000000" transform="translate(0,0)"/>
<path d="" fill="#000000" transform="translate(0,0)"/>
<path d="M0 0 C3 1 3 1 3 1 Z " fill="#000000" transform="translate(87,192)"/>
<path d="" fill="#000000" transform="translate(0,0)"/>
<path d="" fill="#000000" transform="translate(0,0)"/>
<path d="" fill="#000000" transform="translate(0,0)"/>
<path d="" fill="#000000" transform="translate(0,0)"/>
<path d="" fill="#000000" transform="translate(0,0)"/>
<path d="" fill="#000000" transform="translate(0,0)"/>
<path d="" fill="#000000" transform="translate(0,0)"/>
<path d="" fill="#000000" transform="translate(0,0)"/>
<path d="" fill="#000000" transform="translate(0,0)"/>
<path d="M0 0 C0.66 0.66 1.32 1.32 2 2 C1.34 2 0.68 2 0 2 C0 1.34 0 0.68 0 0 Z " fill="#000000" transform="translate(118,101)"/>
<path d="" fill="#000000" transform="translate(0,0)"/>
<path d="" fill="#000000" transform="translate(0,0)"/>
<path d="" fill="#000000" transform="translate(0,0)"/>
<path d="" fill="#000000" transform="translate(0,0)"/>
<path d="" fill="#000000" transform="translate(0,0)"/>
<path d="M0 0 C0.66 0 1.32 0 2 0 C1.67 0.66 1.34 1.32 1 2 C0.67 1.34 0.34 0.68 0 0 Z " fill="#000000" transform="translate(244,47)"/>
<path d="M0 0 C0.66 0 1.32 0 2 0 C1.67 0.66 1.34 1.32 1 2 C0.67 1.34 0.34 0.68 0 0 Z " fill="#000000" transform="translate(242,45)"/>
<path d="M0 0 C2 1 2 1 2 1 Z " fill="#000000" transform="translate(117,265)"/>
<path d="M0 0 C2 1 2 1 2 1 Z " fill="#000000" transform="translate(195,263)"/>
<path d="M0 0 C2 1 2 1 2 1 Z " fill="#000000" transform="translate(200,261)"/>
<path d="M0 0 C2 1 2 1 2 1 Z " fill="#000000" transform="translate(203,260)"/>
<path d="M0 0 C2 1 2 1 2 1 Z " fill="#000000" transform="translate(91,254)"/>
<path d="" fill="#000000" transform="translate(0,0)"/>
<path d="" fill="#000000" transform="translate(0,0)"/>
<path d="" fill="#000000" transform="translate(0,0)"/>
<path d="" fill="#000000" transform="translate(0,0)"/>
<path d="" fill="#000000" transform="translate(0,0)"/>
<path d="" fill="#000000" transform="translate(0,0)"/>
<path d="" fill="#000000" transform="translate(0,0)"/>
<path d="" fill="#000000" transform="translate(0,0)"/>
<path d="" fill="#000000" transform="translate(0,0)"/>
<path d="" fill="#000000" transform="translate(0,0)"/>
<path d="" fill="#000000" transform="translate(0,0)"/>
<path d="" fill="#000000" transform="translate(0,0)"/>
<path d="" fill="#000000" transform="translate(0,0)"/>
<path d="" fill="#000000" transform="translate(0,0)"/>
<path d="" fill="#000000" transform="translate(0,0)"/>
<path d="" fill="#000000" transform="translate(0,0)"/>
<path d="" fill="#000000" transform="translate(0,0)"/>
<path d="" fill="#000000" transform="translate(0,0)"/>
<path d="" fill="#000000" transform="translate(0,0)"/>
<path d="" fill="#000000" transform="translate(0,0)"/>
<path d="" fill="#000000" transform="translate(0,0)"/>
<path d="" fill="#000000" transform="translate(0,0)"/>
<path d="" fill="#000000" transform="translate(0,0)"/>
<path d="" fill="#000000" transform="translate(0,0)"/>
<path d="" fill="#000000" transform="translate(0,0)"/>
<path d="M0 0 C2 1 2 1 2 1 Z " fill="#000000" transform="translate(203,186)"/>
<path d="M0 0 C2 1 2 1 2 1 Z " fill="#000000" transform="translate(184,186)"/>
<path d="M0 0 C2 1 2 1 2 1 Z " fill="#000000" transform="translate(201,185)"/>
<path d="M0 0 C2 1 2 1 2 1 Z " fill="#000000" transform="translate(186,185)"/>
<path d="" fill="#000000" transform="translate(0,0)"/>
<path d="" fill="#000000" transform="translate(0,0)"/>
<path d="" fill="#000000" transform="translate(0,0)"/>
<path d="" fill="#000000" transform="translate(0,0)"/>
<path d="" fill="#000000" transform="translate(0,0)"/>
<path d="" fill="#000000" transform="translate(0,0)"/>
<path d="" fill="#000000" transform="translate(0,0)"/>
<path d="" fill="#000000" transform="translate(0,0)"/>
<path d="" fill="#000000" transform="translate(0,0)"/>
<path d="" fill="#000000" transform="translate(0,0)"/>
<path d="" fill="#000000" transform="translate(0,0)"/>
<path d="" fill="#000000" transform="translate(0,0)"/>
<path d="" fill="#000000" transform="translate(0,0)"/>
<path d="" fill="#000000" transform="translate(0,0)"/>
<path d="" fill="#000000" transform="translate(0,0)"/>
<path d="" fill="#000000" transform="translate(0,0)"/>
<path d="" fill="#000000" transform="translate(0,0)"/>
<path d="" fill="#000000" transform="translate(0,0)"/>
<path d="" fill="#000000" transform="translate(0,0)"/>
<path d="" fill="#000000" transform="translate(0,0)"/>
<path d="" fill="#000000" transform="translate(0,0)"/>
<path d="" fill="#000000" transform="translate(0,0)"/>
<path d="" fill="#000000" transform="translate(0,0)"/>
<path d="" fill="#000000" transform="translate(0,0)"/>
<path d="" fill="#000000" transform="translate(0,0)"/>
<path d="" fill="#000000" transform="translate(0,0)"/>
<path d="" fill="#000000" transform="translate(0,0)"/>
<path d="M0 0 C2 1 2 1 2 1 Z " fill="#000000" transform="translate(218,27)"/>
<path d="M0 0 C2 1 2 1 2 1 Z " fill="#000000" transform="translate(91,25)"/>
<path d="M0 0 C2 1 2 1 2 1 Z " fill="#000000" transform="translate(93,24)"/>
<path d="" fill="#000000" transform="translate(0,0)"/>
<path d="" fill="#000000" transform="translate(0,0)"/>
<path d="" fill="#000000" transform="translate(0,0)"/>
<path d="" fill="#000000" transform="translate(0,0)"/>
<path d="" fill="#000000" transform="translate(0,0)"/>
<path d="" fill="#000000" transform="translate(0,0)"/>
<path d="" fill="#000000" transform="translate(0,0)"/>
<path d="" fill="#000000" transform="translate(0,0)"/>
<path d="" fill="#000000" transform="translate(0,0)"/>
<path d="" fill="#000000" transform="translate(0,0)"/>
<path d="" fill="#000000" transform="translate(0,0)"/>
<path d="" fill="#000000" transform="translate(0,0)"/>
<path d="" fill="#000000" transform="translate(0,0)"/>
<path d="" fill="#000000" transform="translate(0,0)"/>
<path d="" fill="#000000" transform="translate(0,0)"/>
<path d="" fill="#000000" transform="translate(0,0)"/>
<path d="" fill="#000000" transform="translate(0,0)"/>
<path d="" fill="#000000" transform="translate(0,0)"/>
<path d="" fill="#000000" transform="translate(0,0)"/>
<path d="" fill="#000000" transform="translate(0,0)"/>
<path d="" fill="#000000" transform="translate(0,0)"/>
<path d="" fill="#000000" transform="translate(0,0)"/>
<path d="" fill="#000000" transform="translate(0,0)"/>
<path d="" fill="#000000" transform="translate(0,0)"/>
<path d="" fill="#000000" transform="translate(0,0)"/>
<path d="" fill="#000000" transform="translate(0,0)"/>
<path d="" fill="#000000" transform="translate(0,0)"/>
<path d="" fill="#000000" transform="translate(0,0)"/>
<path d="" fill="#000000" transform="translate(0,0)"/>
<path d="" fill="#000000" transform="translate(0,0)"/>
<path d="" fill="#000000" transform="translate(0,0)"/>
<path d="" fill="#000000" transform="translate(0,0)"/>
<path d="" fill="#000000" transform="translate(0,0)"/>
<path d="" fill="#000000" transform="translate(0,0)"/>
<path d="" fill="#000000" transform="translate(0,0)"/>
<path d="" fill="#000000" transform="translate(0,0)"/>
<path d="" fill="#000000" transform="translate(0,0)"/>
<path d="" fill="#000000" transform="translate(0,0)"/>
<path d="" fill="#000000" transform="translate(0,0)"/>
<path d="" fill="#000000" transform="translate(0,0)"/>
<path d="" fill="#000000" transform="translate(0,0)"/>
<path d="" fill="#000000" transform="translate(0,0)"/>
<path d="" fill="#000000" transform="translate(0,0)"/>
<path d="" fill="#000000" transform="translate(0,0)"/>
<path d="" fill="#000000" transform="translate(0,0)"/>
<path d="" fill="#000000" transform="translate(0,0)"/>
<path d="" fill="#000000" transform="translate(0,0)"/>
<path d="" fill="#000000" transform="translate(0,0)"/>
<path d="" fill="#000000" transform="translate(0,0)"/>
<path d="" fill="#000000" transform="translate(0,0)"/>
<path d="" fill="#000000" transform="translate(0,0)"/>
<path d="" fill="#000000" transform="translate(0,0)"/>
<path d="" fill="#000000" transform="translate(0,0)"/>
<path d="" fill="#000000" transform="translate(0,0)"/>
<path d="" fill="#000000" transform="translate(0,0)"/>
<path d="" fill="#000000" transform="translate(0,0)"/>
<path d="" fill="#000000" transform="translate(0,0)"/>
<path d="" fill="#000000" transform="translate(0,0)"/>
<path d="" fill="#000000" transform="translate(0,0)"/>
<path d="" fill="#000000" transform="translate(0,0)"/>
<path d="" fill="#000000" transform="translate(0,0)"/>
<path d="" fill="#000000" transform="translate(0,0)"/>
<path d="" fill="#000000" transform="translate(0,0)"/>
<path d="" fill="#000000" transform="translate(0,0)"/>
<path d="" fill="#000000" transform="translate(0,0)"/>
<path d="" fill="#000000" transform="translate(0,0)"/>
<path d="" fill="#000000" transform="translate(0,0)"/>
<path d="" fill="#000000" transform="translate(0,0)"/>
<path d="" fill="#000000" transform="translate(0,0)"/>
<path d="" fill="#000000" transform="translate(0,0)"/>
<path d="" fill="#000000" transform="translate(0,0)"/>
<path d="" fill="#000000" transform="translate(0,0)"/>
<path d="" fill="#000000" transform="translate(0,0)"/>
<path d="" fill="#000000" transform="translate(0,0)"/>
<path d="" fill="#000000" transform="translate(0,0)"/>
<path d="" fill="#000000" transform="translate(0,0)"/>
<path d="" fill="#000000" transform="translate(0,0)"/>
<path d="" fill="#000000" transform="translate(0,0)"/>
<path d="" fill="#000000" transform="translate(0,0)"/>
<path d="" fill="#000000" transform="translate(0,0)"/>
<path d="" fill="#000000" transform="translate(0,0)"/>
<path d="" fill="#000000" transform="translate(0,0)"/>
<path d="" fill="#000000" transform="translate(0,0)"/>
<path d="" fill="#000000" transform="translate(0,0)"/>
</svg>
